<svg xmlns="http://www.w3.org/2000/svg" version="1.1" xmlns:xlink="http://www.w3.org/1999/xlink" xmlns:svgjs="http://svgjs.dev/svgjs" width="1000" height="750" viewBox="0 0 1000 750"><rect width="1000" height="750" fill="#8abcd7"></rect><g transform="matrix(0.834,0,0,0.834,82.49454545454546,266.54508524350933)"><svg viewBox="0 0 396 103" data-background-color="#8abcd7" preserveAspectRatio="xMidYMid meet" height="260" width="1000" xmlns="http://www.w3.org/2000/svg" xmlns:xlink="http://www.w3.org/1999/xlink"><g id="tight-bounds" transform="matrix(1,0,0,1,0.2400000000000091,0.016584670349260477)"><svg viewBox="0 0 395.52 102.96683065930148" height="102.96683065930148" width="395.52"><g><svg viewBox="0 0 611.1905731687509 159.11295572418132" height="102.96683065930148" width="395.52"><g transform="matrix(1,0,0,1,0,21.990285487205952)"><svg viewBox="0 0 395.52 115.13238474976941" height="115.13238474976941" width="395.52"><g><svg viewBox="0 0 395.52 115.13238474976941" height="115.13238474976941" width="395.52"><g><svg viewBox="0 0 395.52 82.04082368856155" height="82.04082368856155" width="395.52"><g transform="matrix(1,0,0,1,0,0)"><svg width="395.52" viewBox="4.42 -33.08 162.41000000000003 33.69" height="82.04082368856155" data-palette-color="#ffffff"><path d="M10.79 0L4.42 0Q4.57-0.83 4.57-1.81L4.57-1.81 4.57-32.47 9.45-32.47 22.39-12.11 22.39-30.81Q22.39-32.15 22.14-32.47L22.14-32.47 28.74-32.47Q28.61-31.49 28.61-30.32L28.61-30.32 28.61 0 23.54 0 10.79-19.56 10.79 0ZM38.13 0L38.13-32.57Q40.57-32.47 41.09-32.47L41.09-32.47 42.84-32.47Q44.14-32.47 44.92-32.67L44.92-32.67 44.89 0 38.13 0ZM60.3-9.89L60.3 0.15Q58.61 0 56 0L56 0 54.07 0 54.07-32.57 55.05-32.52Q56.07-32.47 56.59-32.47L56.59-32.47 57.29-32.47Q59.44-32.47 60.3-32.67L60.3-32.67 60.3-18.87 70.19-32.57Q71.75-32.47 72.82-32.47L72.82-32.47 74.16-32.47Q76.68-32.47 77.75-32.67L77.75-32.67 68.33-20.36 77.61-1.95Q78.19-0.61 78.71 0L78.71 0 77.22 0Q72.07 0 70.8 0.2L70.8 0.2Q70.53-1.44 70.06-2.66L70.06-2.66 63.84-14.53 60.3-9.89ZM85.86-3.86Q83.64-5.98 82.35-8.96 81.07-11.94 81.07-15.49 81.07-19.04 82.27-22.22 83.46-25.39 85.69-27.81 87.91-30.22 91.06-31.65 94.21-33.08 98.11-33.08L98.11-33.08Q104.85-33.08 109.47-28.83L109.47-28.83Q114.4-24.29 114.4-16.58L114.4-16.58Q114.4-9.11 109.32-4.15L109.32-4.15Q106.19-1.1 101.87 0.05L101.87 0.05Q99.75 0.61 96.9 0.61 94.06 0.61 91.07-0.56 88.08-1.73 85.86-3.86ZM87.86-15.82L87.86-15.82Q87.86-13.55 88.62-11.65 89.37-9.74 90.72-8.37L90.72-8.37Q93.57-5.49 98.06-5.49L98.06-5.49Q102.34-5.49 104.92-8.25L104.92-8.25Q107.56-11.11 107.56-16.04L107.56-16.04Q107.56-20.68 105.05-23.78L105.05-23.78Q102.34-27.1 97.62-27.1L97.62-27.1Q93.06-27.1 90.37-23.73L90.37-23.73Q87.86-20.58 87.86-15.82ZM127.75 0L125.43 0Q121.84 0 120.67 0.15L120.67 0.15 120.67-32.62Q121.25-32.47 123.1-32.47 124.94-32.47 127.38-32.57L127.38-32.57 127.38-5.86 132.44-5.86Q134.63-5.86 135.95-6.01L135.95-6.01Q135.78-0.29 135.78-0.07L135.78-0.07 135.78 0.17Q133.39 0 127.75 0L127.75 0ZM146.2-7.03L143.91 0.2Q141.81 0 139 0L139 0 137.07 0 147.69-29.76Q148.4-31.76 148.4-32.09 148.4-32.42 148.38-32.5L148.38-32.5 148.4-32.54Q149.99-32.47 151.77-32.47L151.77-32.47Q153.23-32.47 155.29-32.52L155.29-32.52 155.31-32.47Q155.26-32.37 155.26-32.2L155.26-32.2Q155.26-31.74 155.99-29.74L155.99-29.74 166.83 0.07Q166.34 0.05 165.69 0.05L165.69 0.05Q165.69 0.05 164.42 0L164.42 0Q163.81 0 163.32 0L163.32 0 159.53 0 157.24-7.03 146.2-7.03ZM148.06-12.89L155.33-12.89 151.65-24.24 148.06-12.89Z" opacity="1" transform="matrix(1,0,0,1,0,0)" fill="#ffffff" class="undefined-text-0" data-fill-palette-color="primary" id="text-0"></path></svg></g></svg></g><g transform="matrix(1,0,0,1,163.310208,101.4086931816624)"><svg viewBox="0 0 232.209792 13.723691568107016" height="13.723691568107016" width="232.209792"><g transform="matrix(1,0,0,1,0,0)"><svg width="232.209792" viewBox="2.69 -38.84 689.8199999999999 40.77" height="13.723691568107016" data-palette-color="#ffffff"><path d="M8.59-0.95L8.59-0.95Q6.64 1 4.88 1L4.88 1Q3.76 1 3.37 0.17L3.37 0.17Q3.93-0.51 3.93-1.88L3.93-1.88 3.93-2.25Q3.93-2.39 3.91-2.51L3.91-2.51Q2.69-3.61 2.69-5.11 2.69-6.62 4.1-8.18L4.1-8.18Q3.69-9.01 3.69-9.95 3.69-10.89 3.97-11.71 4.25-12.52 4.74-13.13L4.74-13.13Q5.76-14.48 6.75-14.48 7.74-14.48 8.15-13.7L8.15-13.7Q7.28-12.77 7.28-10.79 7.28-8.81 7.85-7.35 8.42-5.88 9.47-4.83L9.47-4.83Q11.72-2.54 15.21-2.54L15.21-2.54Q17.55-2.54 19.19-3.88L19.19-3.88Q20.95-5.32 20.95-7.81L20.95-7.81Q20.95-9.57 20.12-10.67L20.12-10.67Q18.82-12.38 16.06-14.28L16.06-14.28Q13.94-15.77 12.67-15.77L12.67-15.77Q11.38-15.77 9.81-14.72L9.81-14.72Q10.23-15.97 10.23-17.04L10.23-17.04Q10.23-17.29 9.77-17.68L9.77-17.68 8.86-18.48Q4.59-22.41 3.81-25.78L3.81-25.78Q3.54-26.95 3.54-28.72 3.54-30.49 4.41-32.31 5.27-34.13 6.79-35.4L6.79-35.4Q9.94-38.09 14.79-38.09L14.79-38.09Q17.75-38.09 20.21-37.13L20.21-37.13Q21.26-36.72 22.61-36.72L22.61-36.72Q23.17-36.72 23.62-36.78 24.07-36.84 24.41-37.28L24.41-37.28Q24.73-37.74 24.73-38.11 24.73-38.48 24.63-38.72L24.63-38.72Q24.8-38.79 25.11-38.79 25.42-38.79 25.78-38.59 26.15-38.38 26.44-38.01L26.44-38.01Q27.1-37.18 27.1-36.15 27.1-35.11 26.51-34.57L26.51-34.57Q27.34-33.84 27.34-32.3L27.34-32.3Q27.34-30.79 26.32-29.76L26.32-29.76Q26.51-29.1 26.51-28.58 26.51-28.05 26.33-27.58 26.15-27.1 25.83-26.76L25.83-26.76Q25.12-26 24.49-26L24.49-26Q23.49-26 22.8-26.34L22.8-26.34Q23.22-27.32 23.22-28.44 23.22-29.57 22.72-30.75 22.22-31.93 21.31-32.81L21.31-32.81Q19.41-34.62 16.33-34.62L16.33-34.62Q14.38-34.62 13.13-33.42L13.13-33.42Q11.96-32.3 11.96-30.71L11.96-30.71Q11.96-29.52 12.55-28.71L12.55-28.71Q13.57-27.32 15.8-25.83L15.8-25.83 16.97-25.05Q17.94-24.44 18.29-24.44 18.63-24.44 18.97-24.51 19.31-24.58 19.73-24.71L19.73-24.71Q20.61-25 21.44-25.54L21.44-25.54 21.12-24.17Q20.97-23.49 20.97-23.17L20.97-23.17Q20.97-22.66 21.48-22.24L21.48-22.24Q26.05-18.29 27.59-15.63L27.59-15.63Q28.93-13.31 28.93-10.62 28.93-7.93 28.05-6.01 27.17-4.08 25.49-2.59L25.49-2.59Q21.78 0.73 15.84 0.73L15.84 0.73Q11.67 0.73 8.59-0.95ZM6.93-30.52L6.93-30.52Q6.01-30.13 6.01-28.49L6.01-28.49Q6.01-25.15 10.47-21.14L10.47-21.14 11.94-19.82Q12.7-19.14 12.61-18.77 12.52-18.41 12.46-18.19 12.4-17.97 12.33-17.77 12.26-17.58 12.23-17.48L12.23-17.48Q13.09-17.99 13.62-17.99L13.62-17.99Q14.7-17.99 15.65-17.41L15.65-17.41Q20.36-14.48 22.05-12.18L22.05-12.18Q23.27-10.5 23.32-7.98L23.32-7.98Q23.32-7.08 23.19-6.47L23.19-6.47Q24.49-7.3 24.49-9.11L24.49-9.11Q24.49-10.86 24.01-11.82 23.54-12.77 22.9-13.51 22.27-14.26 21.25-15.14 20.24-16.02 18.75-17.04L18.75-17.04 15.28-19.41Q11.01-22.22 8.79-25.34L8.79-25.34Q6.84-28.1 6.93-30.52ZM39.18-3.61Q37.16-5.71 35.9-8.67 34.64-11.62 34.35-14.26 34.06-16.89 33.46-17.91 32.86-18.92 31.76-19.46L31.76-19.46Q33.88-20.46 34.26-23.57 34.64-26.68 35.98-29.39 37.33-32.1 39.4-34.03L39.4-34.03Q43.77-38.09 49.92-38.09L49.92-38.09Q56.25-38.09 60.4-34.33L60.4-34.33Q64.72-30.42 65.48-23.39L65.48-23.39Q65.79-20.46 67.97-19.46L67.97-19.46Q65.84-18.41 65.45-15.01 65.06-11.62 63.91-8.67 62.77-5.71 60.84-3.61L60.84-3.61Q56.81 0.73 49.95 0.73L49.95 0.73Q43.38 0.73 39.18-3.61L39.18-3.61ZM47.17-19.46L47.17-19.46Q44.48-18.16 44.48-15.23L44.48-15.23 44.48-7.98Q44.48-4 47.78-2.88L47.78-2.88Q48.75-2.54 49.9-2.54 51.05-2.54 52.01-2.88 52.98-3.22 53.68-3.91L53.68-3.91Q55.15-5.32 55.15-7.98L55.15-7.98 55.15-15.23Q55.15-18.16 52.51-19.46L52.51-19.46Q55.15-20.68 55.15-23.39L55.15-23.39 55.15-29.22Q55.15-31.93 53.56-33.45L53.56-33.45Q52.07-34.84 49.88-34.84L49.88-34.84Q46.14-34.84 44.89-31.71L44.89-31.71Q44.48-30.66 44.48-29.22L44.48-29.22 44.48-23.39Q44.48-20.63 47.17-19.46ZM57.39-30.52L57.39-30.52Q58.08-28.47 58.08-23.46L58.08-23.46Q58.08-20.63 57.83-20.36 57.59-20.09 57.35-19.92L57.35-19.92Q56.91-19.63 56.39-19.46L56.39-19.46Q57.86-18.8 57.93-18.19L57.93-18.19Q58.18-15.8 58.18-14.05 58.18-12.3 58.13-11.24 58.08-10.18 57.98-9.28L57.98-9.28Q57.79-7.35 57.49-6.47L57.49-6.47Q59.4-7.06 59.62-12.11L59.62-12.11Q59.74-14.94 59.74-18.42 59.74-21.9 59.67-23.65 59.59-25.39 59.45-26.51L59.45-26.51Q59.15-29.1 58.23-30.1L58.23-30.1Q57.96-30.4 57.39-30.52ZM39.79-6.47L39.79-6.47Q40.16-6.62 40.16-6.98L40.16-6.98Q40.16-7.52 39.65-8.67L39.65-8.67Q38.35-11.62 38.35-19.46L38.35-19.46Q38.35-25.17 39.72-29.17L39.72-29.17Q39.89-29.79 39.89-30.1 39.89-30.42 39.57-30.52L39.57-30.52Q38.43-29.08 37.94-27.66L37.94-27.66Q37.03-25.07 36.5-20.65L36.5-20.65Q36.42-20.02 35.06-19.46L35.06-19.46Q36.42-18.85 36.5-18.21L36.5-18.21Q37.38-10.64 38.74-8.11L38.74-8.11Q39.21-7.2 39.79-6.47ZM83.2-0.27L83.2-0.27Q81.93 0.49 80.28 0.49 78.63 0.49 77.39-0.29L77.39-0.29Q76.14 0.49 75.08 0.49 74.02 0.49 73.33 0.31 72.65 0.12 72.16-0.2L72.16-0.2Q71.09-0.83 71.09-1.78L71.09-1.78Q71.09-2.27 71.36-2.64L71.36-2.64Q71.89-2.22 72.72-2.22L72.72-2.22Q74.9-2.22 75.73-4.08L75.73-4.08 75.73-16.04Q75.73-17.14 75.29-17.68L75.29-17.68Q74.53-18.58 72.75-19.46L72.75-19.46Q74.41-20.21 74.9-20.8L74.9-20.8Q75.73-21.75 75.73-22.95L75.73-22.95 75.73-33.25Q74.9-35.13 72.72-35.13L72.72-35.13Q71.72-35.13 71.19-34.72L71.19-34.72Q70.92-35.08 70.92-35.56 70.92-36.04 71.22-36.45 71.53-36.87 72.07-37.16L72.07-37.16Q73.21-37.84 74.69-37.84 76.17-37.84 77.39-37.04L77.39-37.04Q78.66-37.84 80.31-37.84 81.95-37.84 83.3-36.87L83.3-36.87Q86.01-37.84 89.74-37.84L89.74-37.84Q92.11-37.84 93.79-37.35L93.79-37.35 95.89-36.77Q96.28-36.67 96.65-36.67L96.65-36.67Q97.33-36.67 97.33-37.65L97.33-37.65Q97.33-37.89 97.16-38.48L97.16-38.48Q97.85-38.6 98.9-38.6 99.95-38.6 100.68-37.9 101.41-37.21 101.41-35.85 101.41-34.5 100.87-33.76L100.87-33.76Q101.61-32.64 101.61-31.13 101.61-29.61 100.63-28.52L100.63-28.52Q100.95-27.73 100.95-26.94 100.95-26.15 100.73-25.54 100.51-24.93 100.17-24.51L100.17-24.51Q99.48-23.68 98.53-23.68L98.53-23.68Q97.68-23.68 96.89-24.1L96.89-24.1Q97.21-24.76 97.21-25.67 97.21-26.59 97.13-27.21 97.04-27.83 96.87-28.52L96.87-28.52Q96.53-30.05 95.72-31.54L95.72-31.54Q94.11-34.55 90.67-34.55L90.67-34.55Q86.4-34.55 84.71-32.32L84.71-32.32 84.71-21.04Q85.49-20.61 86.15-20.61 86.81-20.61 87.23-20.63 87.64-20.65 88.06-20.7L88.06-20.7Q89.11-20.83 89.64-21.09L89.64-21.09Q90.69-21.58 90.69-23.3 90.69-25.02 90.18-25.88L90.18-25.88Q90.57-26.22 91.4-26.22L91.4-26.22Q93.04-26.22 93.77-24.54L93.77-24.54Q94.04-23.93 94.04-23.25 94.04-22.58 93.75-21.75L93.75-21.75Q94.75-20.61 94.75-19.03 94.75-17.46 93.75-16.31L93.75-16.31Q94.04-15.48 94.04-14.81 94.04-14.14 93.77-13.53 93.5-12.92 93.11-12.55L93.11-12.55Q92.35-11.87 91.4-11.87L91.4-11.87Q90.72-11.87 90.18-12.26L90.18-12.26Q90.69-13.11 90.69-14.26L90.69-14.26Q90.69-16.53 89.45-17.07L89.45-17.07Q88.4-17.48 86.95-17.48 85.49-17.48 84.71-17.04L84.71-17.04 84.71-4.15Q85.64-2.22 88.2-2.22L88.2-2.22Q89.03-2.22 89.57-2.64L89.57-2.64Q89.84-2.27 89.84-1.79 89.84-1.32 89.56-0.9 89.28-0.49 88.76-0.2L88.76-0.2Q87.67 0.49 86.14 0.49 84.61 0.49 83.2-0.27ZM78.07-9.64L78.07-6.47Q79.29-6.93 79.44-9.67L79.44-9.67Q79.56-12.4 79.56-17.24 79.56-22.07 79.55-23.67 79.54-25.27 79.51-26.25L79.51-26.25Q79.44-29.13 78.96-29.72 78.49-30.32 78.07-30.52L78.07-30.52Q78.07-22.02 77.78-20.85L77.78-20.85Q77.44-19.87 76.12-19.46L76.12-19.46Q77.58-18.95 77.78-18.21L77.78-18.21Q78.07-17.04 78.07-9.64L78.07-9.64ZM123.33-0.32L123.33-0.32Q122.06 0.49 120.51 0.49 118.96 0.49 117.64-0.32L117.64-0.32Q116.3 0.49 115.18 0.49 114.06 0.49 113.37 0.31 112.69 0.12 112.18-0.2L112.18-0.2Q111.13-0.83 111.13-1.78L111.13-1.78Q111.13-2.27 111.39-2.64L111.39-2.64Q111.93-2.22 112.82-2.22 113.71-2.22 114.63-2.69 115.54-3.15 116.01-4.13L116.01-4.13 116.01-16.02Q116.01-17.14 115.54-17.68L115.54-17.68Q114.81-18.58 113.03-19.46L113.03-19.46Q114.69-20.21 115.18-20.8L115.18-20.8Q116.01-21.75 116.01-22.95L116.01-22.95 116.01-34.28Q115.2-34.57 114.09-34.57 112.98-34.57 111.76-33.98 110.54-33.4 109.56-32.28L109.56-32.28Q107.39-29.74 107.39-25.63L107.39-25.63Q107.39-23.27 108.17-22.14L108.17-22.14Q107.88-21.53 107.07-21.53 106.27-21.53 105.63-21.9 105-22.27 104.53-22.9L104.53-22.9Q103.58-24.17 103.58-25.63 103.58-27.1 104.12-28.13L104.12-28.13Q103.22-29.2 103.22-30.55 103.22-31.91 103.95-32.79L103.95-32.79Q102.92-33.89 102.92-35.74L102.92-35.74Q102.92-37.89 104.9-38.62L104.9-38.62Q105.49-38.84 105.93-38.84L105.93-38.84Q106.76-38.84 107.17-38.48L107.17-38.48Q107-37.89 107-37.65L107-37.65Q107-36.67 107.68-36.67L107.68-36.67Q108.05-36.67 108.44-36.77L108.44-36.77 109.54-37.08Q112.39-37.84 114.3-37.84 116.2-37.84 117.64-37.01L117.64-37.01Q118.89-37.84 120.48-37.84 122.06-37.84 123.36-37.01L123.36-37.01Q124.75-37.84 126.24-37.84L126.24-37.84Q128.61-37.84 130.39-37.35L130.39-37.35 132.56-36.77Q132.95-36.67 133.32-36.67L133.32-36.67Q134-36.67 134-37.65L134-37.65Q134-37.89 133.83-38.48L133.83-38.48Q134.25-38.84 134.88-38.84 135.51-38.84 136.1-38.62 136.69-38.4 137.13-37.99L137.13-37.99Q138.08-37.13 138.08-35.53 138.08-33.94 137.05-32.79L137.05-32.79Q137.79-31.91 137.79-30.57 137.79-29.22 136.86-28.13L136.86-28.13Q137.42-27.12 137.42-26.12 137.42-25.12 137.18-24.32 136.93-23.51 136.47-22.9L136.47-22.9Q135.47-21.53 133.95-21.53L133.95-21.53Q133.12-21.53 132.83-22.14L132.83-22.14Q133.61-23.27 133.61-25.52 133.61-27.78 133.01-29.46 132.41-31.13 131.44-32.28L131.44-32.28Q129.46-34.57 126.77-34.57L126.77-34.57Q125.75-34.57 124.99-34.28L124.99-34.28 124.99-22.95Q124.99-21.75 125.51-21.17L125.51-21.17Q126.31-20.21 127.97-19.46L127.97-19.46Q126.19-18.58 125.7-18.02L125.7-18.02Q124.99-17.14 124.99-16.02L124.99-16.02 124.99-4.13Q125.43-3.15 126.35-2.69 127.26-2.22 128.17-2.22 129.07-2.22 129.61-2.64L129.61-2.64Q129.88-2.27 129.88-1.79 129.88-1.32 129.59-0.9 129.31-0.49 128.83-0.2L128.83-0.2Q127.7 0.49 126.2 0.49 124.7 0.49 123.33-0.32ZM118.35-9.64L118.35-6.47Q119.57-6.93 119.69-9.67L119.69-9.67Q119.84-12.4 119.84-17.24 119.84-22.07 119.83-23.67 119.82-25.27 119.79-26.25L119.79-26.25Q119.72-29.13 119.24-29.72 118.77-30.32 118.35-30.52L118.35-30.52Q118.35-22.02 118.06-20.85L118.06-20.85Q117.72-19.87 116.4-19.46L116.4-19.46Q117.86-18.95 118.06-18.21L118.06-18.21Q118.35-17.04 118.35-9.64L118.35-9.64ZM184.73-21.48L184.73-21.48Q184.73-20.17 187.1-19.46L187.1-19.46Q185.1-18.65 184.32-17.94L184.32-17.94Q182.83-16.55 181.97-14.33L181.97-14.33 177.72-2.12Q176.36 1.34 175.65 1.78L175.65 1.78Q175.43 1.93 175.14 1.93 174.84 1.93 174.65 1.76L174.65 1.76 166.32-22.44 158.68-2.12Q157.31 1.29 156.61 1.78L156.61 1.78Q156.39 1.93 156.09 1.93 155.8 1.93 155.61 1.76L155.61 1.76 147.72-15.99Q147.13-17.38 146.47-17.97L146.47-17.97Q145.45-18.85 143.79-19.46L143.79-19.46Q145.89-20.65 145.84-21.68L145.84-21.68Q145.84-22.34 145.35-23.51L145.35-23.51 144.67-25.17 141.35-34.13Q140.08-35.01 139.14-35.01 138.2-35.01 137.59-34.59L137.59-34.59Q137.32-34.79 137.32-35.33 137.32-35.86 137.49-36.32 137.66-36.77 138.03-37.11L138.03-37.11Q138.81-37.84 140.3-37.84 141.79-37.84 142.93-36.99L142.93-36.99Q144.16-37.84 145.83-37.84 147.5-37.84 148.57-37.01L148.57-37.01Q149.87-37.84 150.99-37.84 152.11-37.84 152.8-37.68 153.48-37.52 153.99-37.21L153.99-37.21Q155.09-36.57 155.14-35.45L155.14-35.45Q155.14-34.77 154.87-34.59L154.87-34.59Q154.21-35.01 153.53-35.01L153.53-35.01Q151.99-35.01 151.14-34.42L151.14-34.42 159.07-12.26 164.47-27.81 162.29-34.16Q161.05-35.01 160.12-35.01 159.19-35.01 158.58-34.59L158.58-34.59Q158.32-34.79 158.32-35.33 158.32-35.86 158.49-36.32 158.66-36.77 159.02-37.11L159.02-37.11Q159.8-37.84 161.29-37.84 162.78-37.84 163.93-36.99L163.93-36.99Q165.15-37.84 166.82-37.84 168.5-37.84 169.57-37.01L169.57-37.01Q170.86-37.84 171.99-37.84 173.11-37.84 173.79-37.68 174.48-37.52 174.99-37.21L174.99-37.21Q176.09-36.57 176.14-35.45L176.14-35.45Q176.14-34.77 175.87-34.59L175.87-34.59Q175.21-35.01 174.53-35.01L174.53-35.01Q172.94-35.01 172.11-34.4L172.11-34.4 178.63-13.96 185.22-34.35Q184.44-35.13 182.97-35.13 181.51-35.13 180.8-34.72L180.8-34.72Q180.56-35.08 180.56-35.86 180.56-36.65 181.22-37.24 181.87-37.84 183.1-37.84 184.32-37.84 185.2-37.21L185.2-37.21Q185.98-37.84 187.1-37.84 188.22-37.84 188.98-37.3L188.98-37.3Q190.05-37.84 191.13-37.84 192.2-37.84 192.85-37.15 193.5-36.45 193.5-35.35L193.5-35.35Q193.5-34.79 193.23-34.59L193.23-34.59Q192.59-35.01 191.69-35.01L191.69-35.01Q190.03-35.01 188.88-33.76L188.88-33.76 185.56-24.61Q184.73-22.31 184.73-21.48ZM173.84-12.55L167.1-30.62Q166.74-30.1 166.74-29.08 166.74-28.05 167.15-26.86L167.15-26.86 168.03-24.24 174.65-6.47Q174.77-6.62 174.73-6.98 174.7-7.35 174.7-8.04 174.7-8.74 174.62-9.27 174.55-9.79 174.43-10.35L174.43-10.35Q174.26-11.33 173.84-12.55L173.84-12.55ZM146.69-30.52L146.69-30.52Q146.21-30.22 146.21-29.6 146.21-28.98 146.25-28.66 146.3-28.34 146.45-27.83L146.45-27.83Q146.77-26.54 147.27-25.11 147.77-23.68 147.94-23.08 148.11-22.49 148.2-22.07 148.28-21.66 148.31-21.39 148.33-21.12 148.35-20.8L148.35-20.8Q148.4-20.14 146.84-19.51L146.84-19.51Q147.84-19.31 148.42-19.17 148.99-19.02 149.23-18.62 149.48-18.21 149.93-17.29 150.38-16.36 150.89-15.19L150.89-15.19 151.94-12.7Q152.48-11.4 152.88-10.3 153.29-9.2 153.64-8.51 153.99-7.81 154.31-7.37L154.31-7.37Q154.92-6.62 155.73-6.47L155.73-6.47Q154.38-9.77 153.2-12.98 152.02-16.19 150.8-19.18 149.57-22.17 148.66-25 147.74-27.83 146.69-30.52ZM194.59-0.17L194.59-0.17Q193.69 0.49 192.53 0.49 191.37 0.49 190.67-0.11 189.98-0.71 189.98-1.49 189.98-2.27 190.22-2.64L190.22-2.64Q190.93-2.22 191.97-2.22 193.01-2.22 193.53-2.5 194.05-2.78 194.54-3.27L194.54-3.27 198.01-13.55 198.5-15.23Q198.72-15.99 198.72-16.63L198.72-16.63Q198.72-18.85 196.62-19.46L196.62-19.46Q198.55-20.19 199.33-21.04L199.33-21.04Q200.55-22.39 201.26-24.58L201.26-24.58 203.94-33.59Q203.16-34.64 202.09-34.64 201.01-34.64 200.09-34.18L200.09-34.18Q199.84-34.62 199.84-35.17 199.84-35.72 200.07-36.21 200.3-36.69 200.72-37.06L200.72-37.06Q201.65-37.84 203.36-37.84 205.07-37.84 206.26-36.82L206.26-36.82Q207.48-37.84 209.3-37.84 211.12-37.84 212.19-36.87L212.19-36.87Q213.76-37.84 215.37-37.84 216.98-37.84 217.87-37.23 218.76-36.62 218.76-35.57L218.76-35.57Q218.76-35.08 218.47-34.72L218.47-34.72Q217.91-35.13 217.15-35.13L217.15-35.13Q215.51-35.13 215.03-32.91L215.03-32.91 218.15-22.92Q218.74-21.04 221.08-20L221.08-20Q221.74-19.7 222.42-19.46L222.42-19.46Q219.98-18.65 219.98-17.04L219.98-17.04Q219.98-16.43 220.18-15.97L220.18-15.97 224.84-3.47Q225.92-2.34 227.01-2.34 228.11-2.34 228.72-2.76L228.72-2.76Q228.99-2.56 228.99-2.03 228.99-1.49 228.82-1.04 228.65-0.59 228.28-0.24L228.28-0.24Q227.5 0.49 225.99 0.49 224.47 0.49 223.35-0.34L223.35-0.34Q222.08 0.49 220.48 0.49 218.88 0.49 217.74-0.32L217.74-0.32Q216.64 0.49 215.15 0.49 213.66 0.49 212.68-0.13 211.71-0.76 211.66-1.9L211.66-1.9Q211.66-2.59 211.93-2.76L211.93-2.76Q212.59-2.34 213.27-2.34L213.27-2.34Q214.71-2.34 215.3-2.93L215.3-2.93 213.44-9.16 200.23-9.16 198.62-3.76Q199.62-2.22 201.05-2.22 202.48-2.22 203.19-2.64L203.19-2.64Q203.45-2.2 203.45-1.43 203.45-0.66 202.7-0.09 201.94 0.49 200.74 0.49 199.55 0.49 198.55-0.12L198.55-0.12Q197.67 0.49 196.53 0.49 195.4 0.49 194.59-0.17ZM201.21-12.45L212.44-12.45 206.77-31.27 201.21-12.45ZM215.83-10.03L217.1-6.47Q217.54-6.47 217.54-7.45L217.54-7.45Q217.54-9.16 217.03-10.77L217.03-10.77 216.1-13.62Q215.12-16.85 215.12-17.68L215.12-17.68Q215.1-19.04 216.32-19.48L216.32-19.48Q214.64-19.82 214.27-20.53L214.27-20.53Q214.1-20.83 213.99-21 213.88-21.17 213.77-21.4 213.66-21.63 213.51-22 213.37-22.36 213.12-23.05L213.12-23.05 211.61-27.61Q211.07-29.32 210.02-30.2L210.02-30.2Q209.7-30.47 209.44-30.52L209.44-30.52Q211.07-24.61 211.58-22.95L211.58-22.95Q215.12-12.06 215.83-10.03L215.83-10.03ZM224.35-4.13L224.3-4.27 224.35-4.13ZM241.07-0.29L241.07-0.29Q239.83 0.49 238.24 0.49 236.65 0.49 235.41-0.29L235.41-0.29Q234.16 0.49 233.1 0.49 232.04 0.49 231.36 0.31 230.67 0.12 230.16-0.2L230.16-0.2Q229.11-0.83 229.11-1.78L229.11-1.78Q229.11-2.27 229.38-2.64L229.38-2.64Q229.92-2.22 230.75-2.22L230.75-2.22Q232.92-2.22 233.75-4.08L233.75-4.08 233.75-16.02Q233.75-17.14 233.29-17.68L233.29-17.68Q232.55-18.58 230.77-19.46L230.77-19.46Q232.43-20.21 232.92-20.8L232.92-20.8Q233.75-21.75 233.75-22.95L233.75-22.95 233.75-33.25Q232.92-35.13 230.75-35.13L230.75-35.13Q229.92-35.13 229.38-34.72L229.38-34.72Q229.11-35.08 229.11-35.56 229.11-36.04 229.39-36.45 229.67-36.87 230.16-37.16L230.16-37.16Q231.28-37.84 232.74-37.84 234.19-37.84 235.41-37.04L235.41-37.04Q236.68-37.84 238.24-37.84 239.8-37.84 241.07-37.04L241.07-37.04Q243.83-38.09 247.19-38.09 250.55-38.09 252.82-37.48 255.09-36.87 256.72-35.74L256.72-35.74Q260.02-33.47 260.82-29.42L260.82-29.42Q261.14-27.61 263.14-26.68L263.14-26.68Q261.24-25.61 260.65-23.27L260.65-23.27Q259.46-18.43 254.67-17.24L254.67-17.24Q257.14-16.58 258.7-14.53L258.7-14.53Q260.31-12.4 260.31-9.52L260.31-9.52 260.31-7.08Q260.31-3.56 262.58-2.54L262.58-2.54Q263.27-2.22 264.07-2.22 264.88-2.22 265.41-2.64L265.41-2.64Q265.68-2.27 265.68-1.79 265.68-1.32 265.44-0.9 265.19-0.49 264.78-0.2L264.78-0.2Q263.9 0.49 262.73 0.49 261.56 0.49 260.43-0.15L260.43-0.15Q258.38 0.98 256.6 0.07L256.6 0.07Q255.92 0.49 255.16 0.49 254.4 0.49 253.71 0.15 253.01-0.2 252.48-0.98L252.48-0.98Q251.33-2.66 251.33-6.15L251.33-6.15 251.33-7.96Q251.33-13.6 248.11-15.28L248.11-15.28Q247.03-15.84 245.59-15.84L245.59-15.84 242.73-15.84 242.73-3.96Q243.39-2.22 245.25-2.22L245.25-2.22Q246.08-2.22 246.62-2.64L246.62-2.64Q246.88-2.27 246.88-1.56 246.88-0.85 246.12-0.18 245.35 0.49 243.81 0.49 242.27 0.49 241.07-0.29ZM247.42-34.84L247.42-34.84Q242.73-34.84 242.73-31.2L242.73-31.2 242.73-21.22Q242.73-19.95 243.74-19.51L243.74-19.51Q244.69-19.09 246.55-19.09 248.42-19.09 249.17-19.3 249.91-19.51 250.45-20.02L250.45-20.02Q251.55-21.07 251.55-23.54L251.55-23.54 251.55-30.66Q251.55-33.72 249.01-34.57L249.01-34.57Q248.25-34.84 247.42-34.84ZM253.18-33.28L253.18-33.28Q253.94-31.57 253.94-27.81L253.94-27.81Q253.94-21.34 253.33-20.07L253.33-20.07Q254.67-20.34 255.26-23.66L255.26-23.66 255.45-24.66Q255.72-26.25 257.02-26.68L257.02-26.68Q256.06-27 255.8-27.44L255.8-27.44Q255.5-27.95 255.27-29.19 255.04-30.42 254.79-31.18 254.55-31.93 254.28-32.37L254.28-32.37Q253.82-33.15 253.18-33.28ZM236.09-9.64L236.09-6.47Q237.31-6.93 237.44-9.67L237.44-9.67Q237.58-12.4 237.58-17.24 237.58-22.07 237.57-23.67 237.56-25.27 237.53-26.25L237.53-26.25Q237.46-29.13 236.98-29.72 236.51-30.32 236.09-30.52L236.09-30.52Q236.09-22.02 235.8-20.85L235.8-20.85Q235.46-19.87 234.14-19.46L234.14-19.46Q235.61-18.95 235.8-18.21L235.8-18.21Q236.09-17.04 236.09-9.64L236.09-9.64ZM252.94-13.16L252.94-13.16Q253.92-12.06 253.92-10.47L253.92-10.47 253.92-7.25Q253.92-3.2 255.53-2.93L255.53-2.93Q255.97-2.86 256.38-2.95L256.38-2.95Q255.5-4.32 255.5-5.83L255.5-5.83 255.5-9.25Q255.5-11.18 254.97-11.99L254.97-11.99Q254.04-13.35 252.94-13.16ZM276.18 0.49L276.18 0.49Q274.57 0.49 273.32-0.29L273.32-0.29Q272.08 0.49 271.02 0.49 269.95 0.49 269.27 0.31 268.59 0.12 268.07-0.2L268.07-0.2Q267.02-0.83 267.02-1.78L267.02-1.78Q267.02-2.27 267.29-2.64L267.29-2.64Q267.83-2.22 268.66-2.22L268.66-2.22Q270.83-2.22 271.66-4.08L271.66-4.08 271.66-16.02Q271.66-17.14 271.2-17.68L271.2-17.68Q270.47-18.58 268.68-19.46L268.68-19.46Q270.34-20.21 270.83-20.8L270.83-20.8Q271.66-21.75 271.66-22.95L271.66-22.95 271.66-33.25Q270.83-35.13 268.66-35.13L268.66-35.13Q267.83-35.13 267.29-34.72L267.29-34.72Q267.02-35.08 267.02-35.56 267.02-36.04 267.3-36.45 267.59-36.87 268.07-37.16L268.07-37.16Q269.2-37.84 270.65-37.84 272.1-37.84 273.32-37.04L273.32-37.04Q274.59-37.84 276.23-37.84 277.86-37.84 279.21-36.89L279.21-36.89Q281.79-37.84 285.19-37.84L285.19-37.84Q287.7-37.84 289.48-37.35L289.48-37.35 291.66-36.77Q292.05-36.67 292.41-36.67L292.41-36.67Q293.1-36.67 293.1-37.65L293.1-37.65Q293.1-37.89 292.93-38.48L292.93-38.48Q293.61-38.6 294.66-38.6 295.71-38.6 296.44-37.9 297.17-37.21 297.17-35.9 297.17-34.59 296.71-33.98L296.71-33.98Q297.37-33.01 297.37-31.6 297.37-30.2 296.42-29.25L296.42-29.25Q296.71-28.52 296.71-27.82 296.71-27.12 296.48-26.55 296.25-25.98 295.91-25.59L295.91-25.59Q295.22-24.88 294.51-24.88L294.51-24.88Q293.49-24.88 292.66-25.32L292.66-25.32Q292.95-25.9 292.95-27.05L292.95-27.05Q292.95-29.74 291.61-31.76L291.61-31.76Q289.78-34.55 286.12-34.55L286.12-34.55Q284.26-34.55 282.76-33.64 281.26-32.74 280.65-31.05L280.65-31.05 280.65-21.61Q281.5-21.07 282.25-21.07 282.99-21.07 283.37-21.09 283.75-21.12 284.14-21.19L284.14-21.19Q285.14-21.34 285.68-21.58L285.68-21.58Q286.7-22.07 286.7-23.97L286.7-23.97Q286.7-25.05 286.19-25.63L286.19-25.63Q286.68-25.98 287.41-25.98L287.41-25.98Q289.05-25.98 289.78-24.66L289.78-24.66Q290.05-24.19 290.05-23.63 290.05-23.07 289.75-22.24L289.75-22.24Q290.75-21.09 290.75-19.52 290.75-17.94 289.75-16.8L289.75-16.8Q290.05-15.97 290.05-15.3 290.05-14.62 289.78-14.01 289.51-13.4 289.12-13.04L289.12-13.04Q288.36-12.35 287.41-12.35L287.41-12.35Q286.73-12.35 286.19-12.74L286.19-12.74Q286.7-13.6 286.7-14.75L286.7-14.75Q286.7-17.02 285.46-17.55L285.46-17.55Q284.36-17.99 282.94-17.99 281.53-17.99 280.65-17.48L280.65-17.48 280.65-5.27Q282.06-2.78 286.12-2.78L286.12-2.78Q290.71-2.78 292.37-5.62L292.37-5.62Q294.29-8.86 294.29-12.57L294.29-12.57Q294.29-13.65 294.1-14.23L294.1-14.23Q294.71-14.84 295.37-14.84 296.03-14.84 296.37-14.66 296.71-14.48 296.98-14.21L296.98-14.21Q297.57-13.55 297.57-12.87L297.57-12.87 297.42-11.67Q297.42-11.21 297.66-10.91L297.66-10.91Q298.15-10.4 298.15-9.95 298.15-9.5 297.86-8.86L297.86-8.86Q298.42-8.54 298.87-7.92 299.32-7.3 299.32-6.64L299.32-6.64Q299.32-5.25 298.15-4.15L298.15-4.15Q298.66-3.42 298.66-2.04 298.66-0.66 297.87 0.31 297.08 1.27 295.81 1.27L295.81 1.27Q295.12 1.27 294.39 1.12L294.39 1.12Q294.49 0.59 294.49 0.05L294.49 0.05Q294.49-1.07 293.46-1.07L293.46-1.07Q292.32-1.07 291.17-0.61L291.17-0.61Q288.46 0.49 285 0.49 281.55 0.49 279.13-0.42L279.13-0.42Q277.86 0.49 276.18 0.49ZM274.01-9.64L274.01-6.47Q275.23-6.93 275.35-9.67L275.35-9.67Q275.5-12.4 275.5-17.24 275.5-22.07 275.48-23.67 275.47-25.27 275.45-26.25L275.45-26.25Q275.37-29.13 274.9-29.72 274.42-30.32 274.01-30.52L274.01-30.52Q274.01-22.02 273.71-20.85L273.71-20.85Q273.37-19.87 272.05-19.46L272.05-19.46Q273.52-18.95 273.71-18.21L273.71-18.21Q274.01-17.04 274.01-9.64L274.01-9.64ZM280.18-6.59L280.16-6.71Q280.16-6.64 280.18-6.59L280.18-6.59ZM323.56 0.49L323.56 0.49Q321.95 0.49 320.71-0.29L320.71-0.29Q319.46 0.49 318.4 0.49 317.34 0.49 316.65 0.31 315.97 0.12 315.46-0.2L315.46-0.2Q314.41-0.83 314.41-1.78L314.41-1.78Q314.41-2.27 314.67-2.64L314.67-2.64Q315.21-2.22 316.04-2.22L316.04-2.22Q318.21-2.22 319.04-4.08L319.04-4.08 319.04-16.02Q319.04-17.14 318.58-17.68L318.58-17.68Q317.85-18.58 316.07-19.46L316.07-19.46Q317.73-20.21 318.21-20.8L318.21-20.8Q319.04-21.75 319.04-22.95L319.04-22.95 319.04-33.25Q318.21-35.13 316.04-35.13L316.04-35.13Q315.21-35.13 314.67-34.72L314.67-34.72Q314.41-35.08 314.41-35.56 314.41-36.04 314.69-36.45 314.97-36.87 315.46-37.16L315.46-37.16Q316.58-37.84 318.03-37.84 319.48-37.84 320.71-37.04L320.71-37.04Q321.97-37.84 323.61-37.84 325.25-37.84 326.59-36.89L326.59-36.89Q329.18-37.84 332.57-37.84L332.57-37.84Q335.08-37.84 336.87-37.35L336.87-37.35 339.04-36.77Q339.43-36.67 339.8-36.67L339.8-36.67Q340.48-36.67 340.48-37.65L340.48-37.65Q340.48-37.89 340.31-38.48L340.31-38.48Q340.99-38.6 342.04-38.6 343.09-38.6 343.83-37.9 344.56-37.21 344.56-35.9 344.56-34.59 344.09-33.98L344.09-33.98Q344.75-33.01 344.75-31.6 344.75-30.2 343.8-29.25L343.8-29.25Q344.09-28.52 344.09-27.82 344.09-27.12 343.86-26.55 343.63-25.98 343.29-25.59L343.29-25.59Q342.6-24.88 341.9-24.88L341.9-24.88Q340.87-24.88 340.04-25.32L340.04-25.32Q340.33-25.9 340.33-27.05L340.33-27.05Q340.33-29.74 338.99-31.76L338.99-31.76Q337.16-34.55 333.5-34.55L333.5-34.55Q331.64-34.55 330.14-33.64 328.64-32.74 328.03-31.05L328.03-31.05 328.03-21.61Q328.88-21.07 329.63-21.07 330.37-21.07 330.75-21.09 331.13-21.12 331.52-21.19L331.52-21.19Q332.52-21.34 333.06-21.58L333.06-21.58Q334.08-22.07 334.08-23.97L334.08-23.97Q334.08-25.05 333.57-25.63L333.57-25.63Q334.06-25.98 334.79-25.98L334.79-25.98Q336.43-25.98 337.16-24.66L337.16-24.66Q337.43-24.19 337.43-23.63 337.43-23.07 337.14-22.24L337.14-22.24Q338.14-21.09 338.14-19.52 338.14-17.94 337.14-16.8L337.14-16.8Q337.43-15.97 337.43-15.3 337.43-14.62 337.16-14.01 336.89-13.4 336.5-13.04L336.5-13.04Q335.74-12.35 334.79-12.35L334.79-12.35Q334.11-12.35 333.57-12.74L333.57-12.74Q334.08-13.6 334.08-14.75L334.08-14.75Q334.08-17.02 332.84-17.55L332.84-17.55Q331.74-17.99 330.32-17.99 328.91-17.99 328.03-17.48L328.03-17.48 328.03-5.27Q329.45-2.78 333.5-2.78L333.5-2.78Q338.09-2.78 339.75-5.62L339.75-5.62Q341.68-8.86 341.68-12.57L341.68-12.57Q341.68-13.65 341.48-14.23L341.48-14.23Q342.09-14.84 342.75-14.84 343.41-14.84 343.75-14.66 344.09-14.48 344.36-14.21L344.36-14.21Q344.95-13.55 344.95-12.87L344.95-12.87 344.8-11.67Q344.8-11.21 345.05-10.91L345.05-10.91Q345.53-10.4 345.53-9.95 345.53-9.5 345.24-8.86L345.24-8.86Q345.8-8.54 346.25-7.92 346.71-7.3 346.71-6.64L346.71-6.64Q346.71-5.25 345.53-4.15L345.53-4.15Q346.05-3.42 346.05-2.04 346.05-0.66 345.25 0.31 344.46 1.27 343.19 1.27L343.19 1.27Q342.51 1.27 341.77 1.12L341.77 1.12Q341.87 0.59 341.87 0.05L341.87 0.05Q341.87-1.07 340.85-1.07L340.85-1.07Q339.7-1.07 338.55-0.61L338.55-0.61Q335.84 0.49 332.39 0.49 328.93 0.49 326.52-0.42L326.52-0.42Q325.25 0.49 323.56 0.49ZM321.39-9.64L321.39-6.47Q322.61-6.93 322.73-9.67L322.73-9.67Q322.88-12.4 322.88-17.24 322.88-22.07 322.87-23.67 322.85-25.27 322.83-26.25L322.83-26.25Q322.76-29.13 322.28-29.72 321.8-30.32 321.39-30.52L321.39-30.52Q321.39-22.02 321.1-20.85L321.1-20.85Q320.75-19.87 319.44-19.46L319.44-19.46Q320.9-18.95 321.1-18.21L321.1-18.21Q321.39-17.04 321.39-9.64L321.39-9.64ZM327.57-6.59L327.54-6.71Q327.54-6.64 327.57-6.59L327.57-6.59ZM353.95-0.17L353.95-0.17Q353.05 0.49 351.89 0.49 350.73 0.49 350.04-0.11 349.34-0.71 349.34-1.49 349.34-2.27 349.58-2.64L349.58-2.64Q350.29-2.22 351.82-2.22 353.34-2.22 354.35-4.3L354.35-4.3 354.35-16.02Q354.35-17.16 353.86-17.72L353.86-17.72Q353.12-18.6 351.37-19.46L351.37-19.46Q353.15-20.31 353.61-20.87L353.61-20.87Q354.35-21.8 354.35-22.95L354.35-22.95 354.35-33.25Q353.52-35.13 351.34-35.13L351.34-35.13Q350.51-35.13 349.98-34.72L349.98-34.72Q349.71-35.08 349.71-35.57 349.71-36.06 349.95-36.47 350.19-36.89 350.59-37.21L350.59-37.21Q351.44-37.84 352.89-37.84 354.35-37.84 355.37-37.04L355.37-37.04Q356.05-37.84 357.25-37.84 358.45-37.84 359.18-37.01L359.18-37.01Q359.89-37.84 360.63-37.84 361.38-37.84 361.75-37.7 362.13-37.55 362.4-37.3L362.4-37.3Q362.79-36.99 363.28-36.06L363.28-36.06 378.42-8.79 378.42-16.24Q378.42-17.31 377.95-17.82L377.95-17.82Q377.25-18.58 375.44-19.46L375.44-19.46Q377.12-20.29 377.61-20.8L377.61-20.8Q378.42-21.66 378.42-22.71L378.42-22.71 378.42-32.93Q377.86-33.96 377.04-34.55 376.22-35.13 375.18-35.13 374.14-35.13 373.44-34.72L373.44-34.72Q373.17-35.16 373.17-35.93 373.17-36.69 373.93-37.27 374.68-37.84 375.9-37.84 377.12-37.84 378.08-37.21L378.08-37.21Q378.93-37.84 380.04-37.84 381.15-37.84 382.01-37.18L382.01-37.18Q382.96-37.84 384.11-37.84 385.25-37.84 385.95-37.24 386.64-36.65 386.64-35.86 386.64-35.08 386.4-34.72L386.4-34.72Q385.69-35.13 384.13-35.13 382.57-35.13 381.64-33.03L381.64-33.03 381.64-22.71Q381.64-21.66 382.08-21.17L382.08-21.17Q382.81-20.36 384.62-19.46L384.62-19.46Q382.64-18.38 382.25-17.97L382.25-17.97Q381.64-17.31 381.64-16.24L381.64-16.24 382.08-3.83Q382.96-2.22 384.84-2.22L384.84-2.22Q385.67-2.22 386.21-2.64L386.21-2.64Q386.47-2.27 386.47-1.78 386.47-1.29 386.23-0.88 385.99-0.46 385.6-0.15L385.6-0.15Q384.74 0.49 383.52 0.49 382.3 0.49 381.32 0L381.32 0Q379.39 1.1 377.39-0.17L377.39-0.17Q376.61 0.49 375.9 0.49 375.19 0.49 374.85 0.37 374.51 0.24 374.22-0.07L374.22-0.07Q373.75-0.54 372.78-2.39L372.78-2.39 357.76-28.27 357.76-4.3Q358.76-2.22 360.3-2.22 361.84-2.22 362.55-2.64L362.55-2.64Q362.82-2.2 362.82-1.43 362.82-0.66 362.06-0.09 361.3 0.49 360.11 0.49 358.91 0.49 357.91-0.12L357.91-0.12Q357.03 0.49 355.9 0.49 354.76 0.49 353.95-0.17ZM362.91-24.24L373.05-6.47Q373.22-6.69 373.22-7.17 373.22-7.64 373.08-8.24 372.95-8.84 372.7-9.52L372.7-9.52Q372.19-10.89 371.36-12.45L371.36-12.45 361.01-30.52Q360.84-30.25 360.84-29.54L360.84-29.54Q360.84-28.03 362.91-24.24L362.91-24.24ZM415.72-0.59L415.72-0.59Q411.96 0.73 408.29 0.73 404.61 0.73 401.86-0.33 399.12-1.39 397.02-3.42L397.02-3.42Q392.55-7.69 391.7-15.26L391.7-15.26Q391.33-18.43 389.21-19.46L389.21-19.46Q391.33-20.46 391.72-23.67 392.11-26.88 393.58-29.6 395.04-32.32 397.34-34.23L397.34-34.23Q402.02-38.09 409.08-38.09L409.08-38.09Q413.94-38.09 417.23-35.86L417.23-35.86Q420.29-33.81 421.02-30.52L421.02-30.52Q421.41-28.66 422.02-28.22L422.02-28.22Q422.26-28.03 422.63-27.86L422.63-27.86Q421.19-25.71 419.7-26.07L419.7-26.07Q419.33-26.15 419.02-26.27L419.02-26.27Q418.48-25.2 417.62-24.49 416.77-23.78 415.73-23.67 414.69-23.56 414.43-23.8L414.43-23.8Q415.04-24.71 415.04-26.1L415.04-26.1Q415.04-26.27 414.96-26.54L414.96-26.54Q414.84-26.49 414.74-26.49 414.65-26.49 414.38-26.48 414.11-26.46 413.62-26.66 413.13-26.86 412.72-27.2L412.72-27.2Q411.79-27.93 411.74-28.81L411.74-28.81Q411.74-29 411.81-29.2L411.81-29.2Q413.33-28.74 414.69-29.88L414.69-29.88Q415.62-30.69 415.57-31.59 415.52-32.5 415.07-33.09 414.62-33.69 413.79-34.13L413.79-34.13Q411.94-35.11 409.03-35.11L409.03-35.11Q402.41-35.11 402.41-27.44L402.41-27.44 402.41-23.39Q402.41-20.63 405.1-19.46L405.1-19.46Q402.41-18.16 402.41-15.23L402.41-15.23 402.41-8.69Q402.41-5.59 403.59-4.09 404.76-2.59 407.3-2.59L407.3-2.59Q410.3-2.59 411.28-5.27L411.28-5.27Q411.59-6.15 411.59-7.3L411.59-7.3 411.59-12.94Q411.13-13.4 410.3-13.4 409.47-13.4 408.93-12.99L408.93-12.99Q408.66-13.26 408.66-14.01 408.66-14.77 409.3-15.44 409.93-16.11 411.24-16.11 412.55-16.11 413.4-15.41L413.4-15.41Q414.57-16.11 415.91-16.11 417.26-16.11 418.36-15.38L418.36-15.38Q419.38-16.11 420.29-16.11 421.19-16.11 421.7-15.94 422.21-15.77 422.6-15.48L422.6-15.48Q423.48-14.82 423.48-13.84L423.48-13.84Q423.48-13.26 423.21-12.99L423.21-12.99Q422.65-13.4 421.77-13.4 420.9-13.4 420.07-11.74L420.07-11.74 420.07-3.74Q420.53-2.22 422.09-2.22L422.09-2.22Q422.68-2.22 423.21-2.64L423.21-2.64Q423.48-2.27 423.48-1.78L423.48-1.78Q423.48-0.78 422.38-0.15 421.29 0.49 419.25 0.49 417.21 0.49 415.72-0.59ZM397.21-6.47L397.21-6.47Q397.58-6.62 397.58-6.98L397.58-6.98Q397.58-7.52 397.07-8.68 396.55-9.84 396.13-12.61 395.7-15.38 395.7-19.04L395.7-19.04Q395.7-24.98 397.14-29.17L397.14-29.17Q397.31-29.79 397.31-30.1 397.31-30.42 396.99-30.52L396.99-30.52Q395.85-29.08 395.36-27.66L395.36-27.66Q394.45-25.07 393.92-20.65L393.92-20.65Q393.84-20.02 392.48-19.46L392.48-19.46Q393.84-18.85 393.92-18.21L393.92-18.21Q394.8-10.64 396.14-8.11L396.14-8.11Q396.63-7.2 397.21-6.47ZM414.11-12.21L414.11-5Q415.52-5.88 415.52-8.11L415.52-8.11 415.52-9.5Q415.52-11.57 414.11-12.21L414.11-12.21ZM419.8-5.05L419.87-4.57 419.8-5.05ZM437.98-0.29L437.98-0.29Q436.74 0.49 435.15 0.49 433.56 0.49 432.32-0.29L432.32-0.29Q431.07 0.49 430.01 0.49 428.95 0.49 428.27 0.31 427.58 0.12 427.07-0.2L427.07-0.2Q426.02-0.83 426.02-1.78L426.02-1.78Q426.02-2.27 426.29-2.64L426.29-2.64Q426.83-2.22 427.66-2.22L427.66-2.22Q429.83-2.22 430.66-4.08L430.66-4.08 430.66-16.02Q430.66-17.14 430.19-17.68L430.19-17.68Q429.46-18.58 427.68-19.46L427.68-19.46Q429.34-20.21 429.83-20.8L429.83-20.8Q430.66-21.75 430.66-22.95L430.66-22.95 430.66-33.25Q429.83-35.13 427.66-35.13L427.66-35.13Q426.83-35.13 426.29-34.72L426.29-34.72Q426.02-35.08 426.02-35.56 426.02-36.04 426.3-36.45 426.58-36.87 427.07-37.16L427.07-37.16Q428.19-37.84 429.65-37.84 431.1-37.84 432.32-37.04L432.32-37.04Q433.59-37.84 435.15-37.84 436.71-37.84 437.98-37.04L437.98-37.04Q439.2-37.84 440.28-37.84 441.35-37.84 442.04-37.66 442.72-37.48 443.23-37.16L443.23-37.16Q444.28-36.52 444.28-35.57L444.28-35.57Q444.28-35.08 444.01-34.72L444.01-34.72Q443.48-35.13 442.65-35.13L442.65-35.13Q440.47-35.13 439.64-33.25L439.64-33.25 439.64-22.95Q439.64-21.75 440.16-21.17L440.16-21.17Q440.96-20.21 442.62-19.46L442.62-19.46Q440.84-18.58 440.35-18.02L440.35-18.02Q439.64-17.14 439.64-16.02L439.64-16.02 439.64-4.08Q440.47-2.22 442.65-2.22L442.65-2.22Q443.48-2.22 444.01-2.64L444.01-2.64Q444.28-2.27 444.28-1.79 444.28-1.32 444-0.9 443.72-0.49 443.23-0.2L443.23-0.2Q442.11 0.49 440.67 0.49 439.23 0.49 437.98-0.29ZM433-9.64L433-6.47Q434.22-6.93 434.35-9.67L434.35-9.67Q434.49-12.4 434.49-17.24 434.49-22.07 434.48-23.67 434.47-25.27 434.44-26.25L434.44-26.25Q434.37-29.13 433.89-29.72 433.42-30.32 433-30.52L433-30.52Q433-22.02 432.71-20.85L432.71-20.85Q432.37-19.87 431.05-19.46L431.05-19.46Q432.51-18.95 432.71-18.21L432.71-18.21Q433-17.04 433-9.64L433-9.64ZM452.31-0.17L452.31-0.17Q451.41 0.49 450.25 0.49 449.09 0.49 448.39-0.11 447.7-0.71 447.7-1.49 447.7-2.27 447.94-2.64L447.94-2.64Q448.65-2.22 450.18-2.22 451.7-2.22 452.7-4.3L452.7-4.3 452.7-16.02Q452.7-17.16 452.21-17.72L452.21-17.72Q451.48-18.6 449.72-19.46L449.72-19.46Q451.51-20.31 451.97-20.87L451.97-20.87Q452.7-21.8 452.7-22.95L452.7-22.95 452.7-33.25Q451.87-35.13 449.7-35.13L449.7-35.13Q448.87-35.13 448.33-34.72L448.33-34.72Q448.06-35.08 448.06-35.57 448.06-36.06 448.31-36.47 448.55-36.89 448.94-37.21L448.94-37.21Q449.8-37.84 451.25-37.84 452.7-37.84 453.73-37.04L453.73-37.04Q454.41-37.84 455.61-37.84 456.8-37.84 457.54-37.01L457.54-37.01Q458.24-37.84 458.99-37.84 459.73-37.84 460.11-37.7 460.49-37.55 460.76-37.3L460.76-37.3Q461.15-36.99 461.64-36.06L461.64-36.06 476.77-8.79 476.77-16.24Q476.77-17.31 476.31-17.82L476.31-17.82Q475.6-18.58 473.8-19.46L473.8-19.46Q475.48-20.29 475.97-20.8L475.97-20.8Q476.77-21.66 476.77-22.71L476.77-22.71 476.77-32.93Q476.21-33.96 475.39-34.55 474.58-35.13 473.54-35.13 472.5-35.13 471.79-34.72L471.79-34.72Q471.53-35.16 471.53-35.93 471.53-36.69 472.28-37.27 473.04-37.84 474.26-37.84 475.48-37.84 476.43-37.21L476.43-37.21Q477.29-37.84 478.4-37.84 479.51-37.84 480.36-37.18L480.36-37.18Q481.32-37.84 482.46-37.84 483.61-37.84 484.31-37.24 485-36.65 485-35.86 485-35.08 484.76-34.72L484.76-34.72Q484.05-35.13 482.49-35.13 480.92-35.13 480-33.03L480-33.03 480-22.71Q480-21.66 480.44-21.17L480.44-21.17Q481.17-20.36 482.98-19.46L482.98-19.46Q481-18.38 480.61-17.97L480.61-17.97Q480-17.31 480-16.24L480-16.24 480.44-3.83Q481.32-2.22 483.2-2.22L483.2-2.22Q484.03-2.22 484.56-2.64L484.56-2.64Q484.83-2.27 484.83-1.78 484.83-1.29 484.59-0.88 484.34-0.46 483.95-0.15L483.95-0.15Q483.1 0.49 481.88 0.49 480.66 0.49 479.68 0L479.68 0Q477.75 1.1 475.75-0.17L475.75-0.17Q474.97 0.49 474.26 0.49 473.55 0.49 473.21 0.37 472.87 0.24 472.57-0.07L472.57-0.07Q472.11-0.54 471.13-2.39L471.13-2.39 456.12-28.27 456.12-4.3Q457.12-2.22 458.66-2.22 460.2-2.22 460.91-2.64L460.91-2.64Q461.17-2.2 461.17-1.43 461.17-0.66 460.42-0.09 459.66 0.49 458.46 0.49 457.27 0.49 456.27-0.12L456.27-0.12Q455.39 0.49 454.25 0.49 453.12 0.49 452.31-0.17ZM461.27-24.24L471.4-6.47Q471.57-6.69 471.57-7.17 471.57-7.64 471.44-8.24 471.31-8.84 471.06-9.52L471.06-9.52Q470.55-10.89 469.72-12.45L469.72-12.45 459.37-30.52Q459.2-30.25 459.2-29.54L459.2-29.54Q459.2-28.03 461.27-24.24L461.27-24.24ZM497.57 0.49L497.57 0.49Q495.96 0.49 494.72-0.29L494.72-0.29Q493.47 0.49 492.41 0.49 491.35 0.49 490.66 0.31 489.98 0.12 489.47-0.2L489.47-0.2Q488.42-0.83 488.42-1.78L488.42-1.78Q488.42-2.27 488.69-2.64L488.69-2.64Q489.22-2.22 490.05-2.22L490.05-2.22Q492.23-2.22 493.06-4.08L493.06-4.08 493.06-16.02Q493.06-17.14 492.59-17.68L492.59-17.68Q491.86-18.58 490.08-19.46L490.08-19.46Q491.74-20.21 492.23-20.8L492.23-20.8Q493.06-21.75 493.06-22.95L493.06-22.95 493.06-33.25Q492.23-35.13 490.05-35.13L490.05-35.13Q489.22-35.13 488.69-34.72L488.69-34.72Q488.42-35.08 488.42-35.56 488.42-36.04 488.7-36.45 488.98-36.87 489.47-37.16L489.47-37.16Q490.59-37.84 492.04-37.84 493.5-37.84 494.72-37.04L494.72-37.04Q495.99-37.84 497.62-37.84 499.26-37.84 500.6-36.89L500.6-36.89Q503.19-37.84 506.58-37.84L506.58-37.84Q509.1-37.84 510.88-37.35L510.88-37.35 513.05-36.77Q513.44-36.67 513.81-36.67L513.81-36.67Q514.49-36.67 514.49-37.65L514.49-37.65Q514.49-37.89 514.32-38.48L514.32-38.48Q515-38.6 516.05-38.6 517.1-38.6 517.84-37.9 518.57-37.21 518.57-35.9 518.57-34.59 518.1-33.98L518.1-33.98Q518.76-33.01 518.76-31.6 518.76-30.2 517.81-29.25L517.81-29.25Q518.1-28.52 518.1-27.82 518.1-27.12 517.87-26.55 517.64-25.98 517.3-25.59L517.3-25.59Q516.62-24.88 515.91-24.88L515.91-24.88Q514.88-24.88 514.05-25.32L514.05-25.32Q514.34-25.9 514.34-27.05L514.34-27.05Q514.34-29.74 513-31.76L513-31.76Q511.17-34.55 507.51-34.55L507.51-34.55Q505.65-34.55 504.15-33.64 502.65-32.74 502.04-31.05L502.04-31.05 502.04-21.61Q502.89-21.07 503.64-21.07 504.38-21.07 504.76-21.09 505.14-21.12 505.53-21.19L505.53-21.19Q506.53-21.34 507.07-21.58L507.07-21.58Q508.09-22.07 508.09-23.97L508.09-23.97Q508.09-25.05 507.58-25.63L507.58-25.63Q508.07-25.98 508.8-25.98L508.8-25.98Q510.44-25.98 511.17-24.66L511.17-24.66Q511.44-24.19 511.44-23.63 511.44-23.07 511.15-22.24L511.15-22.24Q512.15-21.09 512.15-19.52 512.15-17.94 511.15-16.8L511.15-16.8Q511.44-15.97 511.44-15.3 511.44-14.62 511.17-14.01 510.9-13.4 510.51-13.04L510.51-13.04Q509.76-12.35 508.8-12.35L508.8-12.35Q508.12-12.35 507.58-12.74L507.58-12.74Q508.09-13.6 508.09-14.75L508.09-14.75Q508.09-17.02 506.85-17.55L506.85-17.55Q505.75-17.99 504.34-17.99 502.92-17.99 502.04-17.48L502.04-17.48 502.04-5.27Q503.46-2.78 507.51-2.78L507.51-2.78Q512.1-2.78 513.76-5.62L513.76-5.62Q515.69-8.86 515.69-12.57L515.69-12.57Q515.69-13.65 515.49-14.23L515.49-14.23Q516.1-14.84 516.76-14.84 517.42-14.84 517.76-14.66 518.1-14.48 518.37-14.21L518.37-14.21Q518.96-13.55 518.96-12.87L518.96-12.87 518.81-11.67Q518.81-11.21 519.06-10.91L519.06-10.91Q519.55-10.4 519.55-9.95 519.55-9.5 519.25-8.86L519.25-8.86Q519.81-8.54 520.27-7.92 520.72-7.3 520.72-6.64L520.72-6.64Q520.72-5.25 519.55-4.15L519.55-4.15Q520.06-3.42 520.06-2.04 520.06-0.66 519.26 0.31 518.47 1.27 517.2 1.27L517.2 1.27Q516.52 1.27 515.79 1.12L515.79 1.12Q515.88 0.59 515.88 0.05L515.88 0.05Q515.88-1.07 514.86-1.07L514.86-1.07Q513.71-1.07 512.56-0.61L512.56-0.61Q509.85 0.49 506.4 0.49 502.94 0.49 500.53-0.42L500.53-0.42Q499.26 0.49 497.57 0.49ZM495.4-9.64L495.4-6.47Q496.62-6.93 496.74-9.67L496.74-9.67Q496.89-12.4 496.89-17.24 496.89-22.07 496.88-23.67 496.86-25.27 496.84-26.25L496.84-26.25Q496.77-29.13 496.29-29.72 495.81-30.32 495.4-30.52L495.4-30.52Q495.4-22.02 495.11-20.85L495.11-20.85Q494.76-19.87 493.45-19.46L493.45-19.46Q494.91-18.95 495.11-18.21L495.11-18.21Q495.4-17.04 495.4-9.64L495.4-9.64ZM501.58-6.59L501.55-6.71Q501.55-6.64 501.58-6.59L501.58-6.59ZM532.75 0.49L532.75 0.49Q531.14 0.49 529.89-0.29L529.89-0.29Q528.65 0.49 527.59 0.49 526.52 0.49 525.84 0.31 525.16 0.12 524.65-0.2L524.65-0.2Q523.6-0.83 523.6-1.78L523.6-1.78Q523.6-2.27 523.86-2.64L523.86-2.64Q524.4-2.22 525.23-2.22L525.23-2.22Q527.4-2.22 528.23-4.08L528.23-4.08 528.23-16.02Q528.23-17.14 527.77-17.68L527.77-17.68Q527.04-18.58 525.26-19.46L525.26-19.46Q526.92-20.21 527.4-20.8L527.4-20.8Q528.23-21.75 528.23-22.95L528.23-22.95 528.23-33.25Q527.4-35.13 525.23-35.13L525.23-35.13Q524.4-35.13 523.86-34.72L523.86-34.72Q523.6-35.08 523.6-35.56 523.6-36.04 523.88-36.45 524.16-36.87 524.65-37.16L524.65-37.16Q525.77-37.84 527.22-37.84 528.67-37.84 529.89-37.04L529.89-37.04Q531.16-37.84 532.8-37.84 534.44-37.84 535.78-36.89L535.78-36.89Q538.37-37.84 541.76-37.84L541.76-37.84Q544.27-37.84 546.06-37.35L546.06-37.35 548.23-36.77Q548.62-36.67 548.99-36.67L548.99-36.67Q549.67-36.67 549.67-37.65L549.67-37.65Q549.67-37.89 549.5-38.48L549.5-38.48Q550.18-38.6 551.23-38.6 552.28-38.6 553.01-37.9 553.75-37.21 553.75-35.9 553.75-34.59 553.28-33.98L553.28-33.98Q553.94-33.01 553.94-31.6 553.94-30.2 552.99-29.25L552.99-29.25Q553.28-28.52 553.28-27.82 553.28-27.12 553.05-26.55 552.82-25.98 552.48-25.59L552.48-25.59Q551.79-24.88 551.09-24.88L551.09-24.88Q550.06-24.88 549.23-25.32L549.23-25.32Q549.52-25.9 549.52-27.05L549.52-27.05Q549.52-29.74 548.18-31.76L548.18-31.76Q546.35-34.55 542.69-34.55L542.69-34.55Q540.83-34.55 539.33-33.64 537.83-32.74 537.22-31.05L537.22-31.05 537.22-21.61Q538.07-21.07 538.82-21.07 539.56-21.07 539.94-21.09 540.32-21.12 540.71-21.19L540.71-21.19Q541.71-21.34 542.25-21.58L542.25-21.58Q543.27-22.07 543.27-23.97L543.27-23.97Q543.27-25.05 542.76-25.63L542.76-25.63Q543.25-25.98 543.98-25.98L543.98-25.98Q545.62-25.98 546.35-24.66L546.35-24.66Q546.62-24.19 546.62-23.63 546.62-23.07 546.32-22.24L546.32-22.24Q547.33-21.09 547.33-19.52 547.33-17.94 546.32-16.8L546.32-16.8Q546.62-15.97 546.62-15.3 546.62-14.62 546.35-14.01 546.08-13.4 545.69-13.04L545.69-13.04Q544.93-12.35 543.98-12.35L543.98-12.35Q543.3-12.35 542.76-12.74L542.76-12.74Q543.27-13.6 543.27-14.75L543.27-14.75Q543.27-17.02 542.03-17.55L542.03-17.55Q540.93-17.99 539.51-17.99 538.1-17.99 537.22-17.48L537.22-17.48 537.22-5.27Q538.63-2.78 542.69-2.78L542.69-2.78Q547.28-2.78 548.94-5.62L548.94-5.62Q550.87-8.86 550.87-12.57L550.87-12.57Q550.87-13.65 550.67-14.23L550.67-14.23Q551.28-14.84 551.94-14.84 552.6-14.84 552.94-14.66 553.28-14.48 553.55-14.21L553.55-14.21Q554.14-13.55 554.14-12.87L554.14-12.87 553.99-11.67Q553.99-11.21 554.23-10.91L554.23-10.91Q554.72-10.4 554.72-9.95 554.72-9.5 554.43-8.86L554.43-8.86Q554.99-8.54 555.44-7.92 555.9-7.3 555.9-6.64L555.9-6.64Q555.9-5.25 554.72-4.15L554.72-4.15Q555.24-3.42 555.24-2.04 555.24-0.66 554.44 0.31 553.65 1.27 552.38 1.27L552.38 1.27Q551.7 1.27 550.96 1.12L550.96 1.12Q551.06 0.59 551.06 0.05L551.06 0.05Q551.06-1.07 550.04-1.07L550.04-1.07Q548.89-1.07 547.74-0.61L547.74-0.61Q545.03 0.49 541.58 0.49 538.12 0.49 535.7-0.42L535.7-0.42Q534.44 0.49 532.75 0.49ZM530.58-9.64L530.58-6.47Q531.8-6.93 531.92-9.67L531.92-9.67Q532.07-12.4 532.07-17.24 532.07-22.07 532.05-23.67 532.04-25.27 532.02-26.25L532.02-26.25Q531.94-29.13 531.47-29.72 530.99-30.32 530.58-30.52L530.58-30.52Q530.58-22.02 530.28-20.85L530.28-20.85Q529.94-19.87 528.62-19.46L528.62-19.46Q530.09-18.95 530.28-18.21L530.28-18.21Q530.58-17.04 530.58-9.64L530.58-9.64ZM536.75-6.59L536.73-6.71Q536.73-6.64 536.75-6.59L536.75-6.59ZM570.74-0.29L570.74-0.29Q569.49 0.49 567.9 0.49 566.32 0.49 565.07-0.29L565.07-0.29Q563.83 0.49 562.77 0.49 561.7 0.49 561.02 0.31 560.34 0.12 559.82-0.2L559.82-0.2Q558.77-0.83 558.77-1.78L558.77-1.78Q558.77-2.27 559.04-2.64L559.04-2.64Q559.58-2.22 560.41-2.22L560.41-2.22Q562.58-2.22 563.41-4.08L563.41-4.08 563.41-16.02Q563.41-17.14 562.95-17.68L562.95-17.68Q562.22-18.58 560.43-19.46L560.43-19.46Q562.09-20.21 562.58-20.8L562.58-20.8Q563.41-21.75 563.41-22.95L563.41-22.95 563.41-33.25Q562.58-35.13 560.41-35.13L560.41-35.13Q559.58-35.13 559.04-34.72L559.04-34.72Q558.77-35.08 558.77-35.56 558.77-36.04 559.05-36.45 559.33-36.87 559.82-37.16L559.82-37.16Q560.95-37.84 562.4-37.84 563.85-37.84 565.07-37.04L565.07-37.04Q566.34-37.84 567.9-37.84 569.47-37.84 570.74-37.04L570.74-37.04Q573.5-38.09 576.85-38.09 580.21-38.09 582.48-37.48 584.75-36.87 586.39-35.74L586.39-35.74Q589.68-33.47 590.49-29.42L590.49-29.42Q590.8-27.61 592.81-26.68L592.81-26.68Q590.9-25.61 590.32-23.27L590.32-23.27Q589.12-18.43 584.33-17.24L584.33-17.24Q586.8-16.58 588.36-14.53L588.36-14.53Q589.97-12.4 589.97-9.52L589.97-9.52 589.97-7.08Q589.97-3.56 592.25-2.54L592.25-2.54Q592.93-2.22 593.73-2.22 594.54-2.22 595.08-2.64L595.08-2.64Q595.35-2.27 595.35-1.79 595.35-1.32 595.1-0.9 594.86-0.49 594.44-0.2L594.44-0.2Q593.56 0.49 592.39 0.49 591.22 0.49 590.1-0.15L590.1-0.15Q588.05 0.98 586.26 0.07L586.26 0.07Q585.58 0.49 584.82 0.49 584.07 0.49 583.37 0.15 582.67-0.2 582.14-0.98L582.14-0.98Q580.99-2.66 580.99-6.15L580.99-6.15 580.99-7.96Q580.99-13.6 577.77-15.28L577.77-15.28Q576.69-15.84 575.25-15.84L575.25-15.84 572.4-15.84 572.4-3.96Q573.06-2.22 574.91-2.22L574.91-2.22Q575.74-2.22 576.28-2.64L576.28-2.64Q576.55-2.27 576.55-1.56 576.55-0.85 575.78-0.18 575.01 0.49 573.47 0.49 571.93 0.49 570.74-0.29ZM577.08-34.84L577.08-34.84Q572.4-34.84 572.4-31.2L572.4-31.2 572.4-21.22Q572.4-19.95 573.4-19.51L573.4-19.51Q574.35-19.09 576.22-19.09 578.08-19.09 578.83-19.3 579.57-19.51 580.11-20.02L580.11-20.02Q581.21-21.07 581.21-23.54L581.21-23.54 581.21-30.66Q581.21-33.72 578.67-34.57L578.67-34.57Q577.91-34.84 577.08-34.84ZM582.85-33.28L582.85-33.28Q583.6-31.57 583.6-27.81L583.6-27.81Q583.6-21.34 582.99-20.07L582.99-20.07Q584.33-20.34 584.92-23.66L584.92-23.66 585.12-24.66Q585.38-26.25 586.68-26.68L586.68-26.68Q585.73-27 585.46-27.44L585.46-27.44Q585.17-27.95 584.93-29.19 584.7-30.42 584.46-31.18 584.21-31.93 583.94-32.37L583.94-32.37Q583.48-33.15 582.85-33.28ZM565.76-9.64L565.76-6.47Q566.98-6.93 567.1-9.67L567.1-9.67Q567.25-12.4 567.25-17.24 567.25-22.07 567.23-23.67 567.22-25.27 567.2-26.25L567.2-26.25Q567.12-29.13 566.65-29.72 566.17-30.32 565.76-30.52L565.76-30.52Q565.76-22.02 565.46-20.85L565.46-20.85Q565.12-19.87 563.8-19.46L563.8-19.46Q565.27-18.95 565.46-18.21L565.46-18.21Q565.76-17.04 565.76-9.64L565.76-9.64ZM582.6-13.16L582.6-13.16Q583.58-12.06 583.58-10.47L583.58-10.47 583.58-7.25Q583.58-3.2 585.19-2.93L585.19-2.93Q585.63-2.86 586.04-2.95L586.04-2.95Q585.17-4.32 585.17-5.83L585.17-5.83 585.17-9.25Q585.17-11.18 584.63-11.99L584.63-11.99Q583.7-13.35 582.6-13.16ZM608.65-0.29L608.65-0.29Q607.4 0.49 605.82 0.49 604.23 0.49 602.98-0.29L602.98-0.29Q601.74 0.49 600.68 0.49 599.62 0.49 598.93 0.31 598.25 0.12 597.74-0.2L597.74-0.2Q596.69-0.83 596.69-1.78L596.69-1.78Q596.69-2.27 596.95-2.64L596.95-2.64Q597.49-2.22 598.32-2.22L598.32-2.22Q600.49-2.22 601.32-4.08L601.32-4.08 601.32-16.02Q601.32-17.14 600.86-17.68L600.86-17.68Q600.13-18.58 598.35-19.46L598.35-19.46Q600.01-20.21 600.49-20.8L600.49-20.8Q601.32-21.75 601.32-22.95L601.32-22.95 601.32-33.25Q600.49-35.13 598.32-35.13L598.32-35.13Q597.49-35.13 596.95-34.72L596.95-34.72Q596.69-35.08 596.69-35.56 596.69-36.04 596.97-36.45 597.25-36.87 597.74-37.16L597.74-37.16Q598.86-37.84 600.31-37.84 601.76-37.84 602.98-37.04L602.98-37.04Q604.25-37.84 605.82-37.84 607.38-37.84 608.65-37.04L608.65-37.04Q609.87-37.84 610.94-37.84 612.02-37.84 612.7-37.66 613.39-37.48 613.9-37.16L613.9-37.16Q614.95-36.52 614.95-35.57L614.95-35.57Q614.95-35.08 614.68-34.72L614.68-34.72Q614.14-35.13 613.31-35.13L613.31-35.13Q611.14-35.13 610.31-33.25L610.31-33.25 610.31-22.95Q610.31-21.75 610.82-21.17L610.82-21.17Q611.63-20.21 613.29-19.46L613.29-19.46Q611.51-18.58 611.02-18.02L611.02-18.02Q610.31-17.14 610.31-16.02L610.31-16.02 610.31-4.08Q611.14-2.22 613.31-2.22L613.31-2.22Q614.14-2.22 614.68-2.64L614.68-2.64Q614.95-2.27 614.95-1.79 614.95-1.32 614.67-0.9 614.39-0.49 613.9-0.2L613.9-0.2Q612.77 0.49 611.33 0.49 609.89 0.49 608.65-0.29ZM603.67-9.64L603.67-6.47Q604.89-6.93 605.01-9.67L605.01-9.67Q605.16-12.4 605.16-17.24 605.16-22.07 605.15-23.67 605.13-25.27 605.11-26.25L605.11-26.25Q605.04-29.13 604.56-29.72 604.08-30.32 603.67-30.52L603.67-30.52Q603.67-22.02 603.38-20.85L603.38-20.85Q603.03-19.87 601.72-19.46L601.72-19.46Q603.18-18.95 603.38-18.21L603.38-18.21Q603.67-17.04 603.67-9.64L603.67-9.64ZM622.98-0.17L622.98-0.17Q622.07 0.49 620.91 0.49 619.75 0.49 619.06-0.11 618.36-0.71 618.36-1.49 618.36-2.27 618.61-2.64L618.61-2.64Q619.32-2.22 620.84-2.22 622.37-2.22 623.37-4.3L623.37-4.3 623.37-16.02Q623.37-17.16 622.88-17.72L622.88-17.72Q622.15-18.6 620.39-19.46L620.39-19.46Q622.17-20.31 622.64-20.87L622.64-20.87Q623.37-21.8 623.37-22.95L623.37-22.95 623.37-33.25Q622.54-35.13 620.37-35.13L620.37-35.13Q619.54-35.13 619-34.72L619-34.72Q618.73-35.08 618.73-35.57 618.73-36.06 618.97-36.47 619.22-36.89 619.61-37.21L619.61-37.21Q620.46-37.84 621.92-37.84 623.37-37.84 624.39-37.04L624.39-37.04Q625.08-37.84 626.27-37.84 627.47-37.84 628.2-37.01L628.2-37.01Q628.91-37.84 629.65-37.84 630.4-37.84 630.78-37.7 631.16-37.55 631.42-37.3L631.42-37.3Q631.82-36.99 632.3-36.06L632.3-36.06 647.44-8.79 647.44-16.24Q647.44-17.31 646.98-17.82L646.98-17.82Q646.27-18.58 644.46-19.46L644.46-19.46Q646.15-20.29 646.63-20.8L646.63-20.8Q647.44-21.66 647.44-22.71L647.44-22.71 647.44-32.93Q646.88-33.96 646.06-34.55 645.24-35.13 644.21-35.13 643.17-35.13 642.46-34.72L642.46-34.72Q642.19-35.16 642.19-35.93 642.19-36.69 642.95-37.27 643.7-37.84 644.93-37.84 646.15-37.84 647.1-37.21L647.1-37.21Q647.95-37.84 649.06-37.84 650.17-37.84 651.03-37.18L651.03-37.18Q651.98-37.84 653.13-37.84 654.28-37.84 654.97-37.24 655.67-36.65 655.67-35.86 655.67-35.08 655.42-34.72L655.42-34.72Q654.72-35.13 653.15-35.13 651.59-35.13 650.66-33.03L650.66-33.03 650.66-22.71Q650.66-21.66 651.1-21.17L651.1-21.17Q651.83-20.36 653.64-19.46L653.64-19.46Q651.66-18.38 651.27-17.97L651.27-17.97Q650.66-17.31 650.66-16.24L650.66-16.24 651.1-3.83Q651.98-2.22 653.86-2.22L653.86-2.22Q654.69-2.22 655.23-2.64L655.23-2.64Q655.5-2.27 655.5-1.78 655.5-1.29 655.25-0.88 655.01-0.46 654.62-0.15L654.62-0.15Q653.76 0.49 652.54 0.49 651.32 0.49 650.35 0L650.35 0Q648.42 1.1 646.41-0.17L646.41-0.17Q645.63 0.49 644.93 0.49 644.22 0.49 643.88 0.37 643.53 0.24 643.24-0.07L643.24-0.07Q642.78-0.54 641.8-2.39L641.8-2.39 626.79-28.27 626.79-4.3Q627.79-2.22 629.33-2.22 630.86-2.22 631.57-2.64L631.57-2.64Q631.84-2.2 631.84-1.43 631.84-0.66 631.08-0.09 630.33 0.49 629.13 0.49 627.93 0.49 626.93-0.12L626.93-0.12Q626.05 0.49 624.92 0.49 623.78 0.49 622.98-0.17ZM631.94-24.24L642.07-6.47Q642.24-6.69 642.24-7.17 642.24-7.64 642.11-8.24 641.97-8.84 641.73-9.52L641.73-9.52Q641.21-10.89 640.38-12.45L640.38-12.45 630.03-30.52Q629.86-30.25 629.86-29.54L629.86-29.54Q629.86-28.03 631.94-24.24L631.94-24.24ZM684.74-0.59L684.74-0.59Q680.98 0.73 677.31 0.73 673.63 0.73 670.89-0.33 668.14-1.39 666.04-3.42L666.04-3.42Q661.57-7.69 660.72-15.26L660.72-15.26Q660.35-18.43 658.23-19.46L658.23-19.46Q660.35-20.46 660.74-23.67 661.13-26.88 662.6-29.6 664.06-32.32 666.36-34.23L666.36-34.23Q671.05-38.09 678.1-38.09L678.1-38.09Q682.96-38.09 686.26-35.86L686.26-35.86Q689.31-33.81 690.04-30.52L690.04-30.52Q690.43-28.66 691.04-28.22L691.04-28.22Q691.29-28.03 691.65-27.86L691.65-27.86Q690.21-25.71 688.72-26.07L688.72-26.07Q688.36-26.15 688.04-26.27L688.04-26.27Q687.5-25.2 686.65-24.49 685.79-23.78 684.75-23.67 683.72-23.56 683.45-23.8L683.45-23.8Q684.06-24.71 684.06-26.1L684.06-26.1Q684.06-26.27 683.99-26.54L683.99-26.54Q683.86-26.49 683.77-26.49 683.67-26.49 683.4-26.48 683.13-26.46 682.64-26.66 682.15-26.86 681.74-27.2L681.74-27.2Q680.81-27.93 680.76-28.81L680.76-28.81Q680.76-29 680.84-29.2L680.84-29.2Q682.35-28.74 683.72-29.88L683.72-29.88Q684.64-30.69 684.6-31.59 684.55-32.5 684.1-33.09 683.64-33.69 682.81-34.13L682.81-34.13Q680.96-35.11 678.05-35.11L678.05-35.11Q671.44-35.11 671.44-27.44L671.44-27.44 671.44-23.39Q671.44-20.63 674.12-19.46L674.12-19.46Q671.44-18.16 671.44-15.23L671.44-15.23 671.44-8.69Q671.44-5.59 672.61-4.09 673.78-2.59 676.32-2.59L676.32-2.59Q679.32-2.59 680.3-5.27L680.3-5.27Q680.62-6.15 680.62-7.3L680.62-7.3 680.62-12.94Q680.15-13.4 679.32-13.4 678.49-13.4 677.96-12.99L677.96-12.99Q677.69-13.26 677.69-14.01 677.69-14.77 678.32-15.44 678.96-16.11 680.26-16.11 681.57-16.11 682.42-15.41L682.42-15.41Q683.6-16.11 684.94-16.11 686.28-16.11 687.38-15.38L687.38-15.38Q688.4-16.11 689.31-16.11 690.21-16.11 690.72-15.94 691.24-15.77 691.63-15.48L691.63-15.48Q692.51-14.82 692.51-13.84L692.51-13.84Q692.51-13.26 692.24-12.99L692.24-12.99Q691.68-13.4 690.8-13.4 689.92-13.4 689.09-11.74L689.09-11.74 689.09-3.74Q689.55-2.22 691.11-2.22L691.11-2.22Q691.7-2.22 692.24-2.64L692.24-2.64Q692.51-2.27 692.51-1.78L692.51-1.78Q692.51-0.78 691.41-0.15 690.31 0.49 688.27 0.49 686.23 0.49 684.74-0.59ZM666.24-6.47L666.24-6.47Q666.6-6.62 666.6-6.98L666.6-6.98Q666.6-7.52 666.09-8.68 665.58-9.84 665.15-12.61 664.72-15.38 664.72-19.04L664.72-19.04Q664.72-24.98 666.16-29.17L666.16-29.17Q666.33-29.79 666.33-30.1 666.33-30.42 666.02-30.52L666.02-30.52Q664.87-29.08 664.38-27.66L664.38-27.66Q663.48-25.07 662.94-20.65L662.94-20.65Q662.87-20.02 661.5-19.46L661.5-19.46Q662.87-18.85 662.94-18.21L662.94-18.21Q663.82-10.64 665.16-8.11L665.16-8.11Q665.65-7.2 666.24-6.47ZM683.13-12.21L683.13-5Q684.55-5.88 684.55-8.11L684.55-8.11 684.55-9.5Q684.55-11.57 683.13-12.21L683.13-12.21ZM688.82-5.05L688.89-4.57 688.82-5.05Z" opacity="1" transform="matrix(1,0,0,1,0,0)" fill="#ffffff" class="undefined-text-1" data-fill-palette-color="secondary" id="text-1"></path></svg></g></svg></g></svg></g></svg></g><g transform="matrix(1,0,0,1,414.8878694931008,0)"><svg viewBox="0 0 196.30270367565004 159.11295572418132" height="159.11295572418132" width="196.30270367565004"><g><svg xmlns:x="http://ns.adobe.com/Extensibility/1.0/" xmlns:i="http://ns.adobe.com/AdobeIllustrator/10.0/" xmlns:graph="http://ns.adobe.com/Graphs/1.0/" xmlns="http://www.w3.org/2000/svg" xmlns:xlink="http://www.w3.org/1999/xlink" version="1.1" x="0" y="0" viewBox="3.499999999999999 12.3 92.9 75.3" enable-background="new 0 0 100 100" xml:space="preserve" height="159.11295572418132" width="196.30270367565004" class="icon-icon-0" data-fill-palette-color="accent" id="icon-0"><path d="M10.7 87.6h78.5c4 0 7.2-3.2 7.2-7.2V19.5c0-4-3.2-7.2-7.2-7.2H10.7c-4 0-7.2 3.2-7.2 7.2v60.9C3.6 84.4 6.8 87.6 10.7 87.6zM89.3 82.6H10.7c-1.2 0-2.2-1-2.2-2.2V34.9h82.9v45.5C91.4 81.7 90.5 82.6 89.3 82.6zM10.7 17.4h78.5c1.2 0 2.2 1 2.2 2.2v10.4H8.6V19.5C8.6 18.3 9.5 17.4 10.7 17.4zM21.9 23.6c0-1.7 1.4-3 3-3s3 1.4 3 3c0 1.7-1.4 3-3 3S21.9 25.3 21.9 23.6zM31.9 23.6c0-1.7 1.4-3 3-3s3 1.4 3 3c0 1.7-1.4 3-3 3S31.9 25.3 31.9 23.6zM11.9 23.6c0-1.7 1.4-3 3-3 1.7 0 3 1.4 3 3 0 1.7-1.4 3-3 3C13.3 26.7 11.9 25.3 11.9 23.6zM85.4 74.7c0 1.4-1.1 2.5-2.5 2.5H17.1c-1.4 0-2.5-1.1-2.5-2.5s1.1-2.5 2.5-2.5h65.8C84.3 72.2 85.4 73.4 85.4 74.7zM85.4 64.2c0 1.4-1.1 2.5-2.5 2.5H34.4c-1.4 0-2.5-1.1-2.5-2.5s1.1-2.5 2.5-2.5h48.5C84.3 61.7 85.4 62.8 85.4 64.2zM85.4 53.7c0 1.4-1.1 2.5-2.5 2.5H17.1c-1.4 0-2.5-1.1-2.5-2.5s1.1-2.5 2.5-2.5h65.8C84.3 51.2 85.4 52.3 85.4 53.7zM85.4 43.1c0 1.4-1.1 2.5-2.5 2.5H50c-1.4 0-2.5-1.1-2.5-2.5s1.1-2.5 2.5-2.5h32.9C84.3 40.6 85.4 41.7 85.4 43.1z" fill="#ffffff" data-fill-palette-color="accent"></path></svg><g></g></g></svg></g></svg></g><defs></defs></svg><rect width="395.52" height="102.96683065930148" fill="none" stroke="none" visibility="hidden"></rect></g></svg></g></svg>